<?xml version="1.0" encoding="UTF-8"?> <svg xmlns="http://www.w3.org/2000/svg" width="86" height="32" viewBox="0 0 86 32" fill="none"> <path d="M5.99198 12.2402C4.83998 12.2402 3.85331 11.9896 3.03198 11.4882C2.21065 10.9816 1.57865 10.2776 1.13598 9.37623C0.698647 8.4749 0.47998 7.42957 0.47998 6.24023C0.47998 5.0509 0.698647 4.00557 1.13598 3.10423C1.57865 2.2029 2.21065 1.50157 3.03198 1.00023C3.85331 0.493567 4.83998 0.240234 5.99198 0.240234C7.31998 0.240234 8.42665 0.573568 9.31198 1.24023C10.1973 1.90157 10.8186 2.7949 11.176 3.92023L9.23198 4.45623C9.00798 3.70423 8.62665 3.11757 8.08798 2.69623C7.54931 2.26957 6.85065 2.05623 5.99198 2.05623C5.21865 2.05623 4.57331 2.22957 4.05598 2.57623C3.54398 2.9229 3.15731 3.4109 2.89598 4.04023C2.63998 4.66423 2.50931 5.39757 2.50398 6.24023C2.50398 7.0829 2.63198 7.8189 2.88798 8.44823C3.14931 9.07223 3.53865 9.55757 4.05598 9.90423C4.57331 10.2509 5.21865 10.4242 5.99198 10.4242C6.85065 10.4242 7.54931 10.2109 8.08798 9.78424C8.62665 9.35757 9.00798 8.7709 9.23198 8.02423L11.176 8.56023C10.8186 9.68557 10.1973 10.5816 9.31198 11.2482C8.42665 11.9096 7.31998 12.2402 5.99198 12.2402Z" fill="#AB88D6"></path> <path d="M15.0285 12.2402C14.4045 12.2402 13.8765 12.1229 13.4445 11.8882C13.0125 11.6482 12.6845 11.3309 12.4605 10.9362C12.2418 10.5416 12.1325 10.1069 12.1325 9.63223C12.1325 9.21623 12.2018 8.8429 12.3405 8.51223C12.4791 8.17623 12.6925 7.88823 12.9805 7.64823C13.2685 7.4029 13.6418 7.2029 14.1005 7.04823C14.4471 6.93623 14.8525 6.8349 15.3165 6.74423C15.7858 6.65357 16.2925 6.5709 16.8365 6.49623C17.3858 6.41623 17.9591 6.3309 18.5565 6.24023L17.8685 6.63223C17.8738 6.0349 17.7405 5.5949 17.4685 5.31223C17.1965 5.02957 16.7378 4.88823 16.0925 4.88823C15.7031 4.88823 15.3271 4.9789 14.9645 5.16023C14.6018 5.34157 14.3485 5.65357 14.2045 6.09623L12.4445 5.54423C12.6578 4.81357 13.0631 4.2269 13.6605 3.78423C14.2631 3.34157 15.0738 3.12023 16.0925 3.12023C16.8605 3.12023 17.5351 3.24557 18.1165 3.49623C18.7031 3.7469 19.1378 4.15757 19.4205 4.72823C19.5751 5.03223 19.6685 5.34423 19.7005 5.66423C19.7325 5.9789 19.7485 6.3229 19.7485 6.69623V12.0002H18.0605V10.1282L18.3405 10.4322C17.9511 11.0562 17.4951 11.5149 16.9725 11.8082C16.4551 12.0962 15.8071 12.2402 15.0285 12.2402ZM15.4125 10.7042C15.8498 10.7042 16.2231 10.6269 16.5325 10.4722C16.8418 10.3176 17.0871 10.1282 17.2685 9.90423C17.4551 9.68023 17.5805 9.46957 17.6445 9.27223C17.7458 9.0269 17.8018 8.7469 17.8125 8.43223C17.8285 8.11223 17.8365 7.85357 17.8365 7.65623L18.4285 7.83223C17.8471 7.9229 17.3485 8.0029 16.9325 8.07223C16.5165 8.14157 16.1591 8.20823 15.8605 8.27223C15.5618 8.3309 15.2978 8.39757 15.0685 8.47223C14.8445 8.55223 14.6551 8.64557 14.5005 8.75223C14.3458 8.8589 14.2258 8.98157 14.1405 9.12023C14.0605 9.2589 14.0205 9.42157 14.0205 9.60823C14.0205 9.82157 14.0738 10.0109 14.1805 10.1762C14.2871 10.3362 14.4418 10.4642 14.6445 10.5602C14.8525 10.6562 15.1085 10.7042 15.4125 10.7042Z" fill="#AB88D6"></path> <path d="M26.3832 12.2402C25.2312 12.2402 24.2446 11.9896 23.4232 11.4882C22.6019 10.9816 21.9699 10.2776 21.5272 9.37623C21.0899 8.4749 20.8712 7.42957 20.8712 6.24023C20.8712 5.0509 21.0899 4.00557 21.5272 3.10423C21.9699 2.2029 22.6019 1.50157 23.4232 1.00023C24.2446 0.493567 25.2312 0.240234 26.3832 0.240234C27.7112 0.240234 28.8179 0.573568 29.7032 1.24023C30.5886 1.90157 31.2099 2.7949 31.5672 3.92023L29.6232 4.45623C29.3992 3.70423 29.0179 3.11757 28.4792 2.69623C27.9406 2.26957 27.2419 2.05623 26.3832 2.05623C25.6099 2.05623 24.9646 2.22957 24.4472 2.57623C23.9352 2.9229 23.5486 3.4109 23.2872 4.04023C23.0312 4.66423 22.9006 5.39757 22.8952 6.24023C22.8952 7.0829 23.0232 7.8189 23.2792 8.44823C23.5406 9.07223 23.9299 9.55757 24.4472 9.90423C24.9646 10.2509 25.6099 10.4242 26.3832 10.4242C27.2419 10.4242 27.9406 10.2109 28.4792 9.78424C29.0179 9.35757 29.3992 8.7709 29.6232 8.02423L31.5672 8.56023C31.2099 9.68557 30.5886 10.5816 29.7032 11.2482C28.8179 11.9096 27.7112 12.2402 26.3832 12.2402Z" fill="#AB88D6"></path> <path d="M37.8757 12.2402C36.7237 12.2402 35.7371 11.9896 34.9157 11.4882C34.0944 10.9816 33.4624 10.2776 33.0197 9.37623C32.5824 8.4749 32.3637 7.42957 32.3637 6.24023C32.3637 5.0509 32.5824 4.00557 33.0197 3.10423C33.4624 2.2029 34.0944 1.50157 34.9157 1.00023C35.7371 0.493567 36.7237 0.240234 37.8757 0.240234C39.0277 0.240234 40.0144 0.493567 40.8357 1.00023C41.6624 1.50157 42.2944 2.2029 42.7317 3.10423C43.1744 4.00557 43.3957 5.0509 43.3957 6.24023C43.3957 7.42957 43.1744 8.4749 42.7317 9.37623C42.2944 10.2776 41.6624 10.9816 40.8357 11.4882C40.0144 11.9896 39.0277 12.2402 37.8757 12.2402ZM37.8757 10.4242C38.6491 10.4296 39.2917 10.2589 39.8037 9.91223C40.3211 9.56557 40.7077 9.07757 40.9637 8.44823C41.2251 7.8189 41.3557 7.0829 41.3557 6.24023C41.3557 5.39757 41.2251 4.6669 40.9637 4.04823C40.7077 3.42423 40.3211 2.9389 39.8037 2.59223C39.2917 2.24557 38.6491 2.0669 37.8757 2.05623C37.1024 2.0509 36.4597 2.22157 35.9477 2.56823C35.4357 2.9149 35.0491 3.4029 34.7877 4.03223C34.5317 4.66157 34.4037 5.39757 34.4037 6.24023C34.4037 7.0829 34.5317 7.81623 34.7877 8.44023C35.0437 9.0589 35.4277 9.54157 35.9397 9.88824C36.4571 10.2349 37.1024 10.4136 37.8757 10.4242Z" fill="#AB88D6"></path> <path d="M46.5721 12.1762C46.0281 12.1762 45.5321 12.0189 45.0841 11.7042C44.6414 11.3896 44.3428 10.9656 44.1881 10.4322L45.3961 10.1042C45.4814 10.3976 45.6334 10.6189 45.8521 10.7682C46.0708 10.9176 46.3108 10.9896 46.5721 10.9842C46.9188 10.9842 47.2068 10.8669 47.4361 10.6322C47.6654 10.3976 47.7801 10.1096 47.7801 9.76823C47.7801 9.42157 47.6654 9.1309 47.4361 8.89623C47.2121 8.66157 46.9214 8.54423 46.5641 8.54423C46.4574 8.54423 46.3508 8.56023 46.2441 8.59223C46.1428 8.6189 46.0468 8.65623 45.9561 8.70423L45.3801 7.72823L47.8121 5.64823L47.9401 5.98423H44.4761V4.80023H48.9401V5.98423L46.9881 7.85623L46.9721 7.46423C47.4094 7.50157 47.7828 7.62957 48.0921 7.84823C48.4068 8.06157 48.6441 8.33623 48.8041 8.67223C48.9694 9.00823 49.0521 9.37357 49.0521 9.76823C49.0521 10.2322 48.9401 10.6456 48.7161 11.0082C48.4921 11.3709 48.1908 11.6562 47.8121 11.8642C47.4334 12.0722 47.0201 12.1762 46.5721 12.1762Z" fill="#AB88D6"></path> <path d="M5.99198 31.2402C4.83998 31.2402 3.85331 30.9896 3.03198 30.4882C2.21065 29.9816 1.57865 29.2776 1.13598 28.3762C0.698647 27.4749 0.47998 26.4296 0.47998 25.2402C0.47998 24.0509 0.698647 23.0056 1.13598 22.1042C1.57865 21.2029 2.21065 20.5016 3.03198 20.0002C3.85331 19.4936 4.83998 19.2402 5.99198 19.2402C7.31998 19.2402 8.42665 19.5736 9.31198 20.2402C10.1973 20.9016 10.8186 21.7949 11.176 22.9202L9.23198 23.4562C9.00798 22.7042 8.62665 22.1176 8.08798 21.6962C7.54931 21.2696 6.85065 21.0562 5.99198 21.0562C5.21865 21.0562 4.57331 21.2296 4.05598 21.5762C3.54398 21.9229 3.15731 22.4109 2.89598 23.0402C2.63998 23.6642 2.50931 24.3976 2.50398 25.2402C2.50398 26.0829 2.63198 26.8189 2.88798 27.4482C3.14931 28.0722 3.53865 28.5576 4.05598 28.9042C4.57331 29.2509 5.21865 29.4242 5.99198 29.4242C6.85065 29.4242 7.54931 29.2109 8.08798 28.7842C8.62665 28.3576 9.00798 27.7709 9.23198 27.0242L11.176 27.5602C10.8186 28.6856 10.1973 29.5816 9.31198 30.2482C8.42665 30.9096 7.31998 31.2402 5.99198 31.2402Z" fill="#AB88D6"></path> <path d="M14.5165 31.1762C13.9725 31.1762 13.4765 31.0189 13.0285 30.7042C12.5858 30.3896 12.2871 29.9656 12.1325 29.4322L13.3405 29.1042C13.4258 29.3976 13.5778 29.6189 13.7965 29.7682C14.0151 29.9176 14.2551 29.9896 14.5165 29.9842C14.8631 29.9842 15.1511 29.8669 15.3805 29.6322C15.6098 29.3976 15.7245 29.1096 15.7245 28.7682C15.7245 28.4216 15.6098 28.1309 15.3805 27.8962C15.1565 27.6616 14.8658 27.5442 14.5085 27.5442C14.4018 27.5442 14.2951 27.5602 14.1885 27.5922C14.0871 27.6189 13.9911 27.6562 13.9005 27.7042L13.3245 26.7282L15.7565 24.6482L15.8845 24.9842H12.4205V23.8002H16.8845V24.9842L14.9325 26.8562L14.9165 26.4642C15.3538 26.5016 15.7271 26.6296 16.0365 26.8482C16.3511 27.0616 16.5885 27.3362 16.7485 27.6722C16.9138 28.0082 16.9965 28.3736 16.9965 28.7682C16.9965 29.2322 16.8845 29.6456 16.6605 30.0082C16.4365 30.3709 16.1351 30.6562 15.7565 30.8642C15.3778 31.0722 14.9645 31.1762 14.5165 31.1762Z" fill="#AB88D6"></path> <path d="M18.4412 31.0002V29.9122L21.5132 27.1762C21.7479 26.9629 21.9106 26.7629 22.0012 26.5762C22.0972 26.3896 22.1452 26.2136 22.1452 26.0482C22.1452 25.6909 22.0359 25.3949 21.8172 25.1602C21.6039 24.9256 21.3212 24.8082 20.9692 24.8082C20.7239 24.8082 20.5079 24.8642 20.3212 24.9762C20.1346 25.0882 19.9879 25.2376 19.8812 25.4242C19.7746 25.6109 19.7266 25.8136 19.7372 26.0322H18.4492C18.4492 25.5469 18.5559 25.1256 18.7692 24.7682C18.9826 24.4109 19.2812 24.1336 19.6652 23.9362C20.0492 23.7389 20.4919 23.6402 20.9932 23.6402C21.4572 23.6402 21.8732 23.7442 22.2412 23.9522C22.6092 24.1549 22.8999 24.4402 23.1132 24.8082C23.3266 25.1709 23.4332 25.5896 23.4332 26.0642C23.4332 26.4109 23.3852 26.7016 23.2892 26.9362C23.1932 27.1656 23.0492 27.3789 22.8572 27.5762C22.6706 27.7736 22.4386 27.9922 22.1612 28.2322L20.0012 30.1602L19.8732 29.8242H23.4332V31.0002H18.4412Z" fill="#AB88D6"></path> <path d="M25.035 31.0002V19.4802H26.963V24.3282H32.419V19.4802H34.339V31.0002H32.419V26.1362H26.963V31.0002H25.035Z" fill="#AB88D6"></path> <path d="M39.1259 31.0002V29.8322H35.9419V28.6562L38.2379 23.8002H39.6699L37.3739 28.6562H39.1259V26.8082H40.3819V28.6562H41.0459V29.8322H40.3819V31.0002H39.1259Z" fill="#AB88D6"></path> <path d="M44.973 31.2082C44.4876 31.2082 44.0583 31.1096 43.685 30.9122C43.3116 30.7149 43.0183 30.4456 42.805 30.1042C42.5916 29.7576 42.485 29.3602 42.485 28.9122C42.485 28.5122 42.5783 28.1389 42.765 27.7922C42.9516 27.4456 43.2236 27.1709 43.581 26.9682L43.557 27.3842C43.2743 27.1709 43.0556 26.9256 42.901 26.6482C42.7516 26.3709 42.677 26.0589 42.677 25.7122C42.677 25.0882 42.8903 24.5896 43.317 24.2162C43.7436 23.8429 44.2956 23.6562 44.973 23.6562C45.6503 23.6562 46.2023 23.8429 46.629 24.2162C47.0556 24.5896 47.269 25.0882 47.269 25.7122C47.269 26.0589 47.1943 26.3709 47.045 26.6482C46.901 26.9202 46.677 27.1682 46.373 27.3922V26.9762C46.7303 27.1736 47.0023 27.4456 47.189 27.7922C47.381 28.1389 47.477 28.5122 47.477 28.9122C47.477 29.3602 47.3676 29.7576 47.149 30.1042C46.9356 30.4456 46.6396 30.7149 46.261 30.9122C45.8876 31.1096 45.4583 31.2082 44.973 31.2082ZM44.973 30.0242C45.3196 30.0242 45.5996 29.9309 45.813 29.7442C46.0316 29.5522 46.141 29.2749 46.141 28.9122C46.141 28.5389 46.0316 28.2562 45.813 28.0642C45.5996 27.8722 45.3196 27.7762 44.973 27.7762C44.6263 27.7762 44.3463 27.8722 44.133 28.0642C43.9196 28.2562 43.813 28.5389 43.813 28.9122C43.813 29.2749 43.9196 29.5522 44.133 29.7442C44.3463 29.9309 44.6263 30.0242 44.973 30.0242ZM44.973 26.5922C45.2663 26.5922 45.501 26.5202 45.677 26.3762C45.853 26.2322 45.941 26.0109 45.941 25.7122C45.941 25.4136 45.853 25.1922 45.677 25.0482C45.501 24.9042 45.2663 24.8322 44.973 24.8322C44.685 24.8322 44.4503 24.9042 44.269 25.0482C44.093 25.1922 44.005 25.4136 44.005 25.7122C44.005 26.0109 44.093 26.2322 44.269 26.3762C44.4503 26.5202 44.685 26.5922 44.973 26.5922Z" fill="#AB88D6"></path> <path d="M49.2312 31.0002V19.4802H51.1832L56.5272 27.6002V19.4802H58.4792V31.0002H56.5272L51.1832 22.8802V31.0002H49.2312Z" fill="#AB88D6"></path> <path d="M60.0756 31.0002V29.9122L63.1476 27.1762C63.3823 26.9629 63.5449 26.7629 63.6356 26.5762C63.7316 26.3896 63.7796 26.2136 63.7796 26.0482C63.7796 25.6909 63.6703 25.3949 63.4516 25.1602C63.2383 24.9256 62.9556 24.8082 62.6036 24.8082C62.3583 24.8082 62.1423 24.8642 61.9556 24.9762C61.7689 25.0882 61.6223 25.2376 61.5156 25.4242C61.4089 25.6109 61.3609 25.8136 61.3716 26.0322H60.0836C60.0836 25.5469 60.1903 25.1256 60.4036 24.7682C60.6169 24.4109 60.9156 24.1336 61.2996 23.9362C61.6836 23.7389 62.1263 23.6402 62.6276 23.6402C63.0916 23.6402 63.5076 23.7442 63.8756 23.9522C64.2436 24.1549 64.5343 24.4402 64.7476 24.8082C64.9609 25.1709 65.0676 25.5896 65.0676 26.0642C65.0676 26.4109 65.0196 26.7016 64.9236 26.9362C64.8276 27.1656 64.6836 27.3789 64.4916 27.5762C64.3049 27.7736 64.0729 27.9922 63.7956 28.2322L61.6356 30.1602L61.5076 29.8242H65.0676V31.0002H60.0756Z" fill="#AB88D6"></path> <path d="M71.5414 31.2402C70.3894 31.2402 69.4027 30.9896 68.5814 30.4882C67.76 29.9816 67.128 29.2776 66.6854 28.3762C66.248 27.4749 66.0294 26.4296 66.0294 25.2402C66.0294 24.0509 66.248 23.0056 66.6854 22.1042C67.128 21.2029 67.76 20.5016 68.5814 20.0002C69.4027 19.4936 70.3894 19.2402 71.5414 19.2402C72.6934 19.2402 73.68 19.4936 74.5014 20.0002C75.328 20.5016 75.96 21.2029 76.3974 22.1042C76.84 23.0056 77.0614 24.0509 77.0614 25.2402C77.0614 26.4296 76.84 27.4749 76.3974 28.3762C75.96 29.2776 75.328 29.9816 74.5014 30.4882C73.68 30.9896 72.6934 31.2402 71.5414 31.2402ZM71.5414 29.4242C72.3147 29.4296 72.9574 29.2589 73.4694 28.9122C73.9867 28.5656 74.3734 28.0776 74.6294 27.4482C74.8907 26.8189 75.0214 26.0829 75.0214 25.2402C75.0214 24.3976 74.8907 23.6669 74.6294 23.0482C74.3734 22.4242 73.9867 21.9389 73.4694 21.5922C72.9574 21.2456 72.3147 21.0669 71.5414 21.0562C70.768 21.0509 70.1254 21.2216 69.6134 21.5682C69.1014 21.9149 68.7147 22.4029 68.4534 23.0322C68.1974 23.6616 68.0694 24.3976 68.0694 25.2402C68.0694 26.0829 68.1974 26.8162 68.4534 27.4402C68.7094 28.0589 69.0934 28.5416 69.6054 28.8882C70.1227 29.2349 70.768 29.4136 71.5414 29.4242Z" fill="#AB88D6"></path> <path d="M79.5257 31.0002V25.1522L78.1737 25.9842V24.6082L79.5257 23.8002H80.7977V31.0002H79.5257Z" fill="#AB88D6"></path> <path d="M84.7057 31.0002V25.1522L83.3537 25.9842V24.6082L84.7057 23.8002H85.9777V31.0002H84.7057Z" fill="#AB88D6"></path> </svg> 